inDegrees=no
num_controls=7
num_derivatives=13
num_iterations=123
num_multipliers=7
num_parameters=0
num_slacks=7
num_states=26
objective=0.499398
objective_accelerations=0.031335
objective_balance=0.003183
objective_effort=0.033652
objective_height=0.425827
objective_ligament=0.005401
solver_duration=1424.587649
status=Solve_Succeeded
success=true
DataType=double
version=3
OpenSimVersion=4.5
endheader
time	/jointset/ground_pelvis/pelvis_tilt/value	/jointset/ground_pelvis/pelvis_tx/value	/jointset/ground_pelvis/pelvis_ty/value	/jointset/hip_r/hip_flexion_r/value	/jointset/hip_r/hip_adduction_r/value	/jointset/hip_r/hip_rotation_r/value	/jointset/back/lumbar_extension/value	/jointset/patellofemoral_r/patellar_flexion_r/value	/jointset/knee_r/knee_flexion_r/value	/jointset/knee_r/knee_adduction_r/value	/jointset/knee_r/knee_rotation_r/value	/jointset/ankle_r/ankle_angle_r/value	/jointset/subtalar_r/subtalar_angle_r/value	/jointset/ground_pelvis/pelvis_tilt/speed	/jointset/ground_pelvis/pelvis_tx/speed	/jointset/ground_pelvis/pelvis_ty/speed	/jointset/hip_r/hip_flexion_r/speed	/jointset/hip_r/hip_adduction_r/speed	/jointset/hip_r/hip_rotation_r/speed	/jointset/back/lumbar_extension/speed	/jointset/patellofemoral_r/patellar_flexion_r/speed	/jointset/knee_r/knee_flexion_r/speed	/jointset/knee_r/knee_adduction_r/speed	/jointset/knee_r/knee_rotation_r/speed	/jointset/ankle_r/ankle_angle_r/speed	/jointset/subtalar_r/subtalar_angle_r/speed	/forceset/tau_hip_flexion_r	/forceset/tau_hip_adduction_r	/forceset/tau_hip_rotation_r	/forceset/tau_knee_flexion_r	/forceset/tau_ankle_angle_r	/forceset/tau_subtalar_angle_r	/forceset/tau_lumbar_extension	lambda_cid13_p0	lambda_cid14_p0	lambda_cid14_p1	lambda_cid14_p2	lambda_cid14_p3	lambda_cid14_p4	lambda_cid14_p5	/jointset/ground_pelvis/pelvis_tilt/accel	/jointset/ground_pelvis/pelvis_tx/accel	/jointset/ground_pelvis/pelvis_ty/accel	/jointset/hip_r/hip_flexion_r/accel	/jointset/hip_r/hip_adduction_r/accel	/jointset/hip_r/hip_rotation_r/accel	/jointset/back/lumbar_extension/accel	/jointset/patellofemoral_r/patellar_flexion_r/accel	/jointset/knee_r/knee_flexion_r/accel	/jointset/knee_r/knee_adduction_r/accel	/jointset/knee_r/knee_rotation_r/accel	/jointset/ankle_r/ankle_angle_r/accel	/jointset/subtalar_r/subtalar_angle_r/accel	gamma_cid13_p0	gamma_cid14_p0	gamma_cid14_p1	gamma_cid14_p2	gamma_cid14_p3	gamma_cid14_p4	gamma_cid14_p5
0	-0.006515430668715954	0.09626032063061706	0.9427240653653238	0.1762555222360518	-0.2321527762090057	-0.261640625563977	-0.038598046466844	0.07317863873451026	0.07317863873451017	0.1745329224393173	0.1745329023957141	0.03247278518263602	-0.003452069421974808	0	0	0	0	0	0	0	0	0	0	0	0	0	0.2123013464505202	-0.1532509858160687	-0.04328756489307169	-0.3999241458011549	0.4040615332187717	-0.1500795728891639	-0.1091150842542986	-39.07625062234195	79.93250864671651	-41.36834936660423	-4.156568282521123	-38.15693197422747	-680.5687888278733	52.45818984809902	-1.055284675271492	-0.7173777882133309	-0.4422807762961247	6.710290759207454	0.2250121294021955	2.098793602337901	-4.630507346870999	7.971514824679751	7.971514824679392	-2.600806736129277	0.1609793671459242	3.079679717957965	0.9332169798646046	7.663064015289143e-08	4.90731917622875e-08	-4.9751909421663e-07	1.684562405104916e-07	1.908198923343944e-08	2.601515464232958e-08	-2.596787551358733e-07
0.01	-0.006563811305436429	0.09622687015058438	0.9427029089896877	0.1765781747279237	-0.2321405457712912	-0.2615278535758958	-0.03883026708194871	0.07356628745010144	0.0735662874501023	0.174403004548577	0.1745301382178901	0.03262581013524854	-0.003404686292869581	-0.009689373696342709	-0.006471729634771953	-0.004220134843779677	0.06408847663691036	0.002379507851113394	0.02247100413484344	-0.0460599094708921	0.07722899859511062	0.07722899859510991	-0.02575420080813621	-0.0005447772260454334	0.0307075108056548	0.009431393329667399	0.2143012453060445	-0.1686649464330796	-0.04429332853468969	-0.4085632954422238	0.417118956420725	-0.1401603999763565	-0.1096119077589372	-39.08915939991144	84.55017668874711	-36.33893963141331	-4.859011238605684	-43.35784533755857	-681.29454139707	63.01533330943794	-0.9277464676581861	-0.5793117789313987	-0.4102035928708251	6.191827216910082	0.2343844265939036	2.308784843309347	-4.53610071469954	7.55346537233893	7.553465372339045	-2.528380291726042	-0.1609499776351334	3.081678674095998	0.9412564960218738	1.053573153540363e-07	5.227807011564373e-08	-6.970268613450968e-07	1.722009208969009e-07	4.671001736217524e-08	-9.831087160903842e-08	-3.29873110948916e-07
0.02	-0.006709482229288531	0.09613525412863956	0.9426398865147233	0.1775284522063597	-0.2321065273923399	-0.2611928653416147	-0.03951156038526261	0.07471720075072566	0.0747172007507258	0.1740224139420378	0.1745221775257707	0.03308898857836316	-0.003264358033166867	-0.01945805742638606	-0.01163310838242985	-0.008373219865637702	0.125524997312912	0.004357588247346981	0.04444324923975795	-0.08981453764183399	0.1526529170067096	0.1526529170067098	-0.05013454315908202	-0.001039302858304954	0.06203069810038011	0.01858902611949735	0.2163011441615593	-0.1840789070500918	-0.04529909217631118	-0.4172024450832995	0.430176379622675	-0.1302412270635512	-0.1101087312635806	-39.12729011889053	89.23915731799508	-31.31935185161297	-5.53440546874938	-48.73378713335747	-680.9431888470087	73.35456559906305	-1.071146682011626	-0.4553076107905141	-0.4288708119117945	6.179899567025701	0.1447266384262335	1.999041796352105	-4.169451086880962	7.610498787977427	7.610498787977387	-2.326035044691195	0.1710296859031147	3.202815015772072	0.878464871897116	1.340839905551811e-07	5.548294846899996e-08	-8.965346284735637e-07	1.759456012833103e-07	7.433804549091105e-08	-2.226368978604064e-07	-4.000674667619586e-07
0.03	-0.006952679006407399	0.09599606453295473	0.9425354521504202	0.1790821835382091	-0.2320547161243439	-0.2606433360837637	-0.04061971397112682	0.07661358378952961	0.07661358378952943	0.1734051279393174	0.1745118369250268	0.03386524327363118	-0.003034499181218489	-0.02910498064057841	-0.0162363973719739	-0.01251701186658042	0.1849663537461821	0.005965655133468096	0.06534004752452226	-0.1315506757114018	0.2262833000829688	0.2262833000829718	-0.07312551881584911	-0.001032516102136278	0.09299708213534376	0.02729335317051677	0.2087506331432628	-0.1909374382462509	-0.04294754446824185	-0.405614207866496	0.4096738959831228	-0.1164468639605989	-0.1044371439776602	-39.18974793617652	83.18298052157506	-26.47819869862542	-6.204163309294795	-44.56815637728087	-680.544826008089	81.82982634278595	-0.9000037271090686	-0.4675625563992396	-0.4076822546335022	5.788025394222717	0.1628962684841755	2.116665297761653	-4.135869594062326	7.188222533922777	7.188222533923218	-2.2561792834052	-0.08498815393235422	3.010102867454127	0.8528861213856003	1.536139514748117e-07	6.211827170239862e-08	-1.019352675184288e-06	2.058533725539364e-07	8.726394144895181e-08	-2.989580070855507e-07	-4.666993061216261e-07
0.04	-0.007290052732865311	0.09580989744470191	0.9423894700940181	0.1812226827769404	-0.2319880142765308	-0.2598885055524208	-0.04213726382310027	0.07923605355239031	0.07923605355239048	0.1725638220885841	0.1745014659269638	0.03494447236326791	-0.002720303158823674	-0.03829344729421233	-0.02102860689602984	-0.01668275828544707	0.2428785786892544	0.007335704210753967	0.08550350393820884	-0.1716937908636757	0.2978702618181324	0.2978702618181382	-0.09493851276204569	-0.001045382322211521	0.1226255769741321	0.03545646020878609	0.2012001221249682	-0.1977959694424091	-0.04059599676016822	-0.394025970649692	0.3891714123435713	-0.1026525008576456	-0.098765556691739	-39.27543348345356	77.19246403546956	-21.63725737448058	-6.860512875308881	-40.57722648310048	-679.1780365012612	90.12483618015985	-0.9794553698999449	-0.4930917176928885	-0.4332616954965803	5.874073268986143	0.09712307665918402	1.852373422136561	-3.850846503422167	7.201814519758299	7.201814519758273	-2.090438702577085	0.1670990906543345	2.935237176537023	0.7702208693470984	1.729542894195657e-07	6.88243257580662e-08	-1.140589490546194e-06	2.363005889974329e-07	9.988670066120503e-08	-3.742893242070616e-07	-5.332576915338013e-07
0.05	-0.007717455348190472	0.09557532014288619	0.9422015781445188	0.1839350182091128	-0.2319087125481223	-0.2589369690917428	-0.04404788968582293	0.08256512543073986	0.08256512543073997	0.1715101068731533	0.1744921718144387	0.03631421140435577	-0.002326839360096694	-0.04712546111012807	-0.02587079205869127	-0.02090848689201694	0.2993033458644291	0.008485292526058202	0.1046900045207316	-0.2101545005535038	0.3676222072857639	0.3676222072857679	-0.1155999351823131	-0.0008329478990556231	0.1511658068985089	0.04316322695963914	0.1950159413905997	-0.1828369575377681	-0.03894216076748423	-0.3865383075627539	0.3798158875386422	-0.1105871832078226	-0.09392624600211996	-39.38298267322437	73.94080491900056	-25.68252215284946	-6.181445461432997	-38.28672480489591	-678.3313950708417	80.69767288062057	-0.8258122575274336	-0.4773526249325944	-0.4192322014785274	5.483916398997015	0.117855196177925	1.934785998926716	-3.802151032668988	6.813563828215361	6.813563828215112	-2.023455805960628	-0.05452877807744615	2.789986476257983	0.759790408195952	1.683348341470674e-07	6.24788234673895e-08	-1.103861534924462e-06	2.197702561546846e-07	1.032965369828709e-07	-4.327319124695936e-07	-5.169531777560475e-07
0.06	-0.008231325675692718	0.09529280684756793	0.9419710281573054	0.1872030489044798	-0.2318191192391183	-0.2577969681007163	-0.04633481621162508	0.08658205261735594	0.08658205261735571	0.1702558850746781	0.1744844331668993	0.03796466685986138	-0.001858530727812884	-0.05558698972964587	-0.03061580559654203	-0.02521436582824382	0.3540176313281589	0.009394020329837586	0.1231964100079175	-0.2469539234795669	0.4354413234713866	0.4354413234713889	-0.1350398293709429	-0.0007342893248462041	0.1787688598576848	0.05042542692015397	0.1888317606562304	-0.1678779456331267	-0.03728832477480311	-0.3790506444758157	0.3704603627337132	-0.1185218655579992	-0.08908693531250177	-39.51076930987885	70.74923912916029	-29.7426680278092	-5.470988588028012	-36.14583962007316	-676.5680003227352	71.07097344838404	-0.9053583306203603	-0.4736573927307517	-0.4492917614279843	5.531976926697163	0.04895097435421233	1.716354403069164	-3.518589150669178	6.815248663356514	6.815248663356513	-1.846133056249575	0.1443439208650414	2.747801783496862	0.6813075112794552	1.627065454759479e-07	5.55837819621299e-08	-1.060482431050788e-06	2.01261921236726e-07	1.063184607617751e-07	-4.904633963591158e-07	-4.971596998018755e-07
0.07000000000000001	-0.008828377031452282	0.09496324949424638	0.9416968793761628	0.1910104105525012	-0.2317216921322235	-0.2564770513869928	-0.04898128068781295	0.09126814139378302	0.09126814139378259	0.1688135556699372	0.1744788678450762	0.03988647381427771	-0.001319839695425307	-0.0637680937955603	-0.03528592724907247	-0.02963524462331378	0.4071829127283623	0.01006908356822953	0.1406635761466302	-0.2820826841733587	0.5014447416179302	0.5014447416179336	-0.1532459469703807	-0.0004057715402914863	0.2054256395797794	0.05725643460997904	0.1824466644844547	-0.1613066179579739	-0.03540807925975298	-0.3718423696141463	0.3589385370176399	-0.1180197662142159	-0.08410791448740453	-39.65708197487639	67.14446012835577	-30.25416233688233	-5.277062851459466	-33.81498942275871	-675.3644918469915	68.54824101337708	-0.7661863089005655	-0.4622075783734577	-0.4415628644582444	5.168048186120536	0.0733288100432244	1.743450958207953	-3.471576391046239	6.44310238780172	6.443102387801857	-1.780975578676046	-0.02687286886586216	2.599614847432833	0.6754019839250641	1.483384426293616e-07	4.607870893518782e-08	-9.540358589625438e-07	1.731331206784643e-07	1.034509926860526e-07	-5.283156292292174e-07	-4.503702951399993e-07
